# xmcd CD database file
#
# Track frame offsets:
#	150
#	19945
#	37922
#	54843
#	68146
#	87763
#	92651
#	108927
#
# Disc length: 1736 seconds
#
# Revision: 0
# Processed by: cddbd v1.4PL0 Copyright (c) Steve Scherf et al.
# Submitted via: CDex 1.51
#
DISCID=5506c608
DTITLE=Blue Vinyl Lounge - Invisible Girl
DYEAR=1999
DGENRE=Jazz
TTITLE0=Foregone Conclusions
TTITLE1=Invisible Girl
TTITLE2=Taste of Honey
TTITLE3=Blink
TTITLE4=Simple
TTITLE5=Promenade Sentimentale I
TTITLE6=Promenade Sentimentale II
TTITLE7=Starter Kit
EXTD=YEAR: 1999
EXTT0=
EXTT1=
EXTT2=
EXTT3=
EXTT4=
EXTT5=
EXTT6=
EXTT7=
PLAYORDER=
